<?xml version="1.0" encoding="UTF-8" standalone="no"?>
<!DOCTYPE svg PUBLIC "-//W3C//DTD SVG 1.1//EN" "http://www.w3.org/Graphics/SVG/1.1/DTD/svg11.dtd">
<svg
  viewBox="145 140 712 140"
  version="1.1"
  xmlns="http://www.w3.org/2000/svg"
  xmlns:xlink="http://www.w3.org/1999/xlink"
  xml:space="preserve"
  xmlns:serif="http://www.serif.com/"
  style="
    fill-rule: evenodd;
    clip-rule: evenodd;
    stroke-linejoin: round;
    stroke-miterlimit: 2;
  "
>
  <g transform="matrix(1,0,0,1,-1561,0)">
    <g
      id="mozio-logo-blue"
      transform="matrix(1.388,0,0,1.22683,4092.2,-4329.66)"
    >
      <rect
        x="-1823.64"
        y="3529.13"
        width="722.292"
        height="341.195"
        style="fill: none"
      />
      <g transform="matrix(2.47193,0,0,2.79665,-3240.77,3557.78)">
        <g transform="matrix(1,0,0,1,0,-284.254)">
          <path
            d="M697.696,331.119C695.769,331.119 694.196,332.892 694.196,335.127C694.196,337.322 695.769,339.136 697.696,339.136C699.623,339.136 701.197,337.363 701.197,335.127C701.197,332.916 699.695,331.118 697.761,331.118C697.739,331.118 697.718,331.118 697.696,331.119Z"
            style="fill: rgb(252, 208, 18); fill-rule: nonzero"
          />
        </g>
        <g>
          <g transform="matrix(1,0,0,1,755.206,64.5182)">
            <path
              d="M0,-27.522L1.611,-33.075L-29.974,-33.075L-32.807,-24.092L-15.182,-24.092L-34.103,0.078L-35.404,5.743L0,5.743L2.676,-3.237L-18.764,-3.237L0,-27.522ZM8.535,5.706L19.157,5.706L19.157,-31.993L8.535,-31.993L8.535,5.706ZM55.974,-9.212C55.463,-7.865 54.755,-6.708 53.811,-5.742C52.908,-4.779 51.804,-4.047 50.626,-3.468C49.407,-2.93 48.068,-2.622 46.613,-2.622C45.196,-2.622 43.898,-2.89 42.64,-3.468C41.382,-4.009 40.32,-4.779 39.375,-5.742C38.47,-6.708 37.723,-7.865 37.212,-9.212C36.7,-10.56 36.425,-12.027 36.425,-13.646C36.425,-15.225 36.7,-16.691 37.212,-18.08C37.723,-19.427 38.431,-20.622 39.375,-21.626C40.28,-22.626 41.382,-23.398 42.64,-23.976C43.898,-24.515 45.196,-24.824 46.613,-24.824C48.068,-24.824 49.407,-24.515 50.626,-23.939C51.845,-23.358 52.908,-22.588 53.811,-21.587C54.716,-20.622 55.463,-19.427 55.974,-18.08C56.488,-16.729 56.762,-15.265 56.762,-13.646C56.721,-12.027 56.488,-10.56 55.974,-9.212M66.083,-21.701C64.982,-24.17 63.527,-26.328 61.638,-28.138C59.791,-29.952 57.549,-31.416 54.953,-32.418C52.354,-33.458 49.564,-33.96 46.574,-33.96C43.583,-33.96 40.829,-33.458 38.273,-32.418C35.717,-31.377 33.515,-29.952 31.626,-28.138C29.74,-26.328 28.241,-24.17 27.14,-21.701C26.042,-19.234 25.529,-16.538 25.529,-13.608C25.529,-10.754 26.078,-8.058 27.14,-5.588C28.241,-3.084 29.699,-0.963 31.626,0.847C33.515,2.66 35.755,4.085 38.273,5.089C40.829,6.128 43.583,6.63 46.574,6.63C49.564,6.63 52.354,6.128 54.953,5.089C57.549,4.048 59.791,2.623 61.638,0.847C63.488,-0.963 64.982,-3.084 66.083,-5.588C67.186,-8.095 67.697,-10.754 67.697,-13.608C67.697,-16.538 67.145,-19.234 66.083,-21.701M-48.147,-9.212C-48.661,-7.865 -49.367,-6.708 -50.311,-5.742C-51.217,-4.779 -52.318,-4.047 -53.537,-3.468C-54.756,-2.93 -56.093,-2.622 -57.55,-2.622C-58.967,-2.622 -60.263,-2.89 -61.522,-3.468C-62.78,-4.009 -63.843,-4.779 -64.787,-5.742C-65.69,-6.708 -66.439,-7.865 -66.95,-9.212C-67.461,-10.56 -67.738,-12.027 -67.738,-13.646C-67.738,-15.225 -67.461,-16.691 -66.95,-18.08C-66.439,-19.427 -65.731,-20.622 -64.787,-21.626C-63.883,-22.626 -62.78,-23.398 -61.522,-23.976C-60.263,-24.515 -58.967,-24.824 -57.55,-24.824C-56.093,-24.824 -54.756,-24.515 -53.537,-23.939C-52.318,-23.358 -51.255,-22.588 -50.311,-21.587C-49.408,-20.622 -48.661,-19.427 -48.147,-18.08C-47.635,-16.729 -47.36,-15.265 -47.36,-13.646C-47.36,-12.027 -47.635,-10.56 -48.147,-9.212M-42.484,-28.138C-44.332,-29.952 -46.575,-31.416 -49.169,-32.418C-51.766,-33.458 -54.558,-33.96 -57.55,-33.96C-60.538,-33.96 -63.291,-33.458 -65.85,-32.418C-68.405,-31.377 -70.607,-29.952 -72.499,-28.138C-74.385,-26.328 -75.881,-24.17 -76.943,-21.701C-78.042,-19.234 -78.553,-16.538 -78.553,-13.608C-78.553,-10.754 -78.003,-8.058 -76.943,-5.588C-75.881,-3.084 -74.385,-0.963 -72.499,0.847C-70.607,2.66 -68.365,4.085 -65.85,5.089C-63.291,6.128 -60.538,6.63 -57.55,6.63C-54.558,6.63 -51.766,6.128 -49.169,5.089C-46.575,4.048 -44.332,2.623 -42.484,0.847C-40.634,-0.963 -39.14,-3.084 -38.039,-5.588C-36.936,-8.095 -36.425,-10.754 -36.425,-13.608C-36.425,-16.538 -36.977,-19.234 -38.039,-21.701C-39.14,-24.17 -40.595,-26.29 -42.484,-28.138M-97.83,-34.152C-100.74,-34.152 -103.219,-33.807 -105.226,-33.113C-107.23,-32.418 -109.157,-31.609 -111.086,-30.721C-111.99,-31.571 -113.286,-32.34 -114.941,-33.075C-116.591,-33.807 -118.95,-34.152 -121.98,-34.152C-124.144,-34.152 -126.071,-33.92 -127.724,-33.458C-129.376,-32.997 -130.832,-32.535 -132.05,-32.072L-133.98,-33.113L-139.328,-33.113L-139.328,5.706L-128.707,5.706L-128.707,-23.32C-127.842,-23.746 -126.897,-24.13 -125.915,-24.477C-124.932,-24.824 -123.592,-24.977 -121.98,-24.977C-120.133,-24.977 -118.755,-24.284 -117.89,-22.935C-116.984,-21.587 -116.553,-19.352 -116.553,-16.228L-116.553,5.743L-105.931,5.743L-105.931,-18.311C-105.931,-19.121 -106.011,-19.928 -106.129,-20.778C-106.247,-21.626 -106.363,-22.164 -106.404,-22.357C-105.382,-23.167 -104.281,-23.746 -103.139,-24.17C-102,-24.592 -100.66,-24.824 -99.087,-24.824C-96.962,-24.824 -95.548,-24.014 -94.801,-22.395C-94.052,-20.778 -93.66,-18.696 -93.66,-16.151L-93.66,5.743L-83.115,5.743L-83.115,-18.233C-83.115,-23.013 -84.336,-26.869 -86.736,-29.758C-89.097,-32.688 -92.795,-34.152 -97.83,-34.152"
              style="fill: rgb(13, 132, 235)"
            />
          </g>
          <g transform="matrix(1,0,0,1,0,-281.79)">
            <path
              d="M795.839,331.275C762.992,328.501 733.924,327.845 701.197,331.275C701.629,333.01 697.854,334.899 698.285,336.634C730.265,333.28 762.797,333.82 794.857,336.518C794.659,337.482 794.5,338.445 794.305,339.407C798.162,337.828 802.094,336.362 806.066,334.899C802.92,332.7 799.694,330.503 796.388,328.383C796.191,329.349 796.035,330.312 795.839,331.275Z"
              style="fill-rule: nonzero"
            />
          </g>
          <g transform="matrix(1,0,0,1,0,-287.109)">
            <path
              d="M795.839,332.663C762.992,328.576 729.716,329.077 696.989,334.167C697.423,336.748 697.813,339.331 698.246,341.912C730.227,336.94 762.758,336.441 794.815,340.448C794.621,341.875 794.464,343.263 794.266,344.688C798.162,342.415 802.094,340.217 806.066,338.06C802.92,334.82 799.694,331.584 796.388,328.421C796.191,329.848 796.035,331.237 795.839,332.663Z"
              style="fill: rgb(252, 208, 18); fill-rule: nonzero"
            />
          </g>
        </g>
      </g>
    </g>
  </g>
</svg>
